# xmcd
#
# Track frame offsets:
# 150
# 10097
# 24702
# 36622
# 49042
# 60562
# 71225
# 81120
# 95745
# 108327
# 121195
# 133637
#
# Disc length: 1926 seconds
#
#
# Revision: 1
# Processed by: cddbd v1.5.1PL2 Copyright (c) Steve Scherf et al.
# Submitted via: FreeRIP 2.60 
#
DISCID=a407840c
DTITLE=Haggard, Merle - Mama Tried
DYEAR=1968
DGENRE=Country
TTITLE0=Mama Tried
TTITLE1=Green Green Grass of Home
TTITLE2=Little Ole Wine Drinker Me
TTITLE3=In the Good Old Days (When Times Were Bad)
TTITLE4=I Could Have Gone Right
TTITLE5=I'll Always Know
TTITLE6=The Sunny Side of My Life
TTITLE7=Teach Me to Forget
TTITLE8=Folsom Prison Blues
TTITLE9=Run 'em Off
TTITLE10=You'll Never Love Me Now
TTITLE11=Too Many Bridges to Cross Over
EXTD=
EXTT0=
EXTT1=
EXTT2=
EXTT3=
EXTT4=
EXTT5=
EXTT6=
EXTT7=
EXTT8=
EXTT9=
EXTT10=
EXTT11=
PLAYORDER=
